HIERARCHY
ROOT Hips
{
  OFFSET 51.8683 85.4665 9.63476
  CHANNELS 6 Xposition Yposition Zposition Zrotation Xrotation Yrotation
  JOINT spine
  {
    OFFSET 0 6.3926 0.367606
    CHANNELS 3 Zrotation Xrotation Yrotation
    JOINT spine1
    {
      OFFSET 0 9.17611 0
      CHANNELS 3 Zrotation Xrotation Yrotation
      JOINT spine2
      {
        OFFSET 0 8.79238 0
        CHANNELS 3 Zrotation Xrotation Yrotation
        JOINT Neck
        {
          OFFSET 0 22.5737 1.07624
          CHANNELS 3 Zrotation Xrotation Yrotation
          JOINT Head
          {
            OFFSET 0 6.82011 0
            CHANNELS 3 Zrotation Xrotation Yrotation
            End Site
            {
              OFFSET 0 16.5085 -5.44427
            }
          }
        }
        JOINT RightShoulder
        {
          OFFSET -3.70221 9.49509 -0.515508
          CHANNELS 3 Zrotation Xrotation Yrotation
          JOINT RightArm
          {
            OFFSET 0 12.4537 0
            CHANNELS 3 Zrotation Xrotation Yrotation
            JOINT RightArmRoll
            {
              OFFSET 0 6.28686 0
              CHANNELS 3 Zrotation Xrotation Yrotation
              JOINT RightForeArm
              {
                OFFSET 0 18.3114 0
                CHANNELS 3 Zrotation Xrotation Yrotation
                JOINT RightForeArmRoll
                {
                  OFFSET 0 7.05482 0
                  CHANNELS 3 Zrotation Xrotation Yrotation
                  JOINT RightHand
                  {
                    OFFSET 0 14.1575 0
                    CHANNELS 3 Zrotation Xrotation Yrotation
                    End Site
                    {
                      OFFSET 0 0 0
                    }
                  }
                }
              }
            }
          }
        }
        JOINT LeftShoulder
        {
          OFFSET 3.70221 9.49509 -0.515508
          CHANNELS 3 Zrotation Xrotation Yrotation
          JOINT LeftArm
          {
            OFFSET 0 12.4537 0
            CHANNELS 3 Zrotation Xrotation Yrotation
            JOINT LeftArmRoll
            {
              OFFSET 0 6.28686 0
              CHANNELS 3 Zrotation Xrotation Yrotation
              JOINT LeftForeArm
              {
                OFFSET 0 18.3114 0
                CHANNELS 3 Zrotation Xrotation Yrotation
                JOINT LeftForeArmRoll
                {
                  OFFSET 0 7.05482 0
                  CHANNELS 3 Zrotation Xrotation Yrotation
                  JOINT LeftHand
                  {
                    OFFSET 0 14.1575 0
                    CHANNELS 3 Zrotation Xrotation Yrotation
                    End Site
                    {
                      OFFSET 0 0 0
                    }
                  }
                }
              }
            }
          }
        }
      }
    }
  }
  JOINT RightUpLeg
  {
    OFFSET -5.66616 -1.03903 -0.87161
    CHANNELS 3 Zrotation Xrotation Yrotation
    JOINT RightUpLegRoll
    {
      OFFSET 0 16.6005 0
      CHANNELS 3 Zrotation Xrotation Yrotation
      JOINT RightLeg
      {
        OFFSET 0 -20.5572 0
        CHANNELS 3 Zrotation Xrotation Yrotation
        JOINT RightLegRoll
        {
          OFFSET 0 20.6244 0
          CHANNELS 3 Zrotation Xrotation Yrotation
          JOINT RightFoot
          {
            OFFSET 0 17.1664 0
            CHANNELS 3 Zrotation Xrotation Yrotation
            JOINT RightToeBase
            {
              OFFSET 0 14.3502 0
              CHANNELS 3 Zrotation Xrotation Yrotation
              End Site
              {
                OFFSET 0.00608252 6.9497 -0.801061
              }
            }
          }
        }
      }
    }
  }
  JOINT LeftUpLeg
  {
    OFFSET 5.66616 -1.03903 -0.87161
    CHANNELS 3 Zrotation Xrotation Yrotation
    JOINT LeftUpLegRoll
    {
      OFFSET 0 16.6006 0
      CHANNELS 3 Zrotation Xrotation Yrotation
      JOINT LeftLeg
      {
        OFFSET 0 20.5571 0
        CHANNELS 3 Zrotation Xrotation Yrotation
        JOINT LeftLegRoll
        {
          OFFSET 0 20.8151 0
          CHANNELS 3 Zrotation Xrotation Yrotation
          JOINT LeftFoot
          {
            OFFSET 0 16.9757 0
            CHANNELS 3 Zrotation Xrotation Yrotation
            JOINT LeftToeBase
            {
              OFFSET 0 14.3502 0
              CHANNELS 3 Zrotation Xrotation Yrotation
              End Site
              {
                OFFSET -0.0272592 6.94971 -0.801061
              }
            }
          }
        }
      }
    }
  }
}
MOTION
Frames: 11
Frame Time: 0.00208333
55.3941 85.494 10.9315 -0.693821 -0.686325 -1.42732 -0.419144 -1.54133 -0.236514 -0.84188 0.921604 -0.426453 -0.837258 2.56656 -0.412777 7.41505 10.426 -2.37254 -3.67819 3.4906 -0.377227 67.5062 -2.74622 -2.4449 105.725 19.3893 -0.798777 -2.47745e-007 1.0738e-007 -2.66121e-006 16.6954 8.83453 -1.45663 2.21832e-006 -1.88737e-007 -3.00345 8.02904 -4.95139 0.697692 -54.4089 0.0491786 -0.624411 -113.585 16.1932 4.40617 5.11801e-006 -3.26363e-006 3.38616e-006 -12.7148 8.26243 1.42797 1.80882e-006 -9.62005e-008 3.01055 -8.02888 -4.95144 -0.697687 179.149 0.260533 -0.195587 180 7.01572e-015 179.036 175.349 5.26353 179.856 -5.44318e-007 -6.69345e-007 0.0986643 -18.9896 67.3376 18.9909 8.14979 25.4766 -3.66608 -177.546 0.49064 1.85886 4.54188e-006 -4.6773e-006 -1.01856 -1.36857 -8.55985 0.40046 -4.71681e-006 -6.37289e-006 -0.162432 20.4887 70.295 -21.6407 -8.14371 25.3904 3.27654 
55.3934 85.4936 10.9325 -0.690286 -0.657329 -1.43794 -0.41872 -1.54333 -0.236479 -0.841088 0.917605 -0.427455 -0.836453 2.56256 -0.413776 7.40416 10.4421 -2.36688 -3.68357 3.45837 -0.374609 67.5028 -2.73653 -2.4395 105.74 19.3934 -0.817553 -2.47745e-007 1.0738e-007 -2.66121e-006 16.7 8.84548 -1.458 2.21832e-006 -1.88737e-007 -3.00345 8.02904 -4.95139 0.697692 -54.388 0.0215161 -0.608539 -113.62 16.1805 4.41034 5.11801e-006 -3.26363e-006 3.38616e-006 -12.7072 8.2354 1.42384 1.80882e-006 -9.62004e-008 3.01055 -8.02888 -4.95144 -0.697687 179.151 0.311142 -0.201482 180 7.01572e-015 179.036 175.353 5.29223 179.856 -5.44318e-007 -6.69345e-007 0.0993214 -19.0074 67.3467 18.9982 8.14971 25.4754 -3.66585 -177.555 0.550674 1.86813 4.54188e-006 -4.6773e-006 -1.0186 -1.3635 -8.61694 0.401668 -4.71681e-006 -6.37289e-006 -0.163846 20.508 70.3145 -21.6613 -8.1438 25.3918 3.27418 
55.3925 85.4826 10.9262 -0.686875 -0.628647 -1.44875 -0.418251 -1.54542 -0.236424 -0.84023 0.913442 -0.428483 -0.835582 2.5584 -0.414801 7.39234 10.4594 -2.36112 -3.68811 3.42543 -0.372028 67.4994 -2.72625 -2.43379 105.755 19.3973 -0.836007 -2.47745e-007 1.0738e-007 -2.66121e-006 16.7046 8.85623 -1.45935 2.21832e-006 -1.88737e-007 -3.00345 8.02904 -4.95139 0.697692 -54.3675 -0.00598388 -0.592721 -113.655 16.1683 4.41345 5.11801e-006 -3.26363e-006 3.38616e-006 -12.6989 8.20723 1.41953 1.80882e-006 -9.62004e-008 3.01055 -8.02888 -4.95144 -0.697687 179.153 0.361654 -0.207172 180 7.01572e-015 179.036 175.357 5.32135 179.855 -5.44318e-007 -6.69345e-007 0.0999787 -19.0251 67.356 19.0056 8.14964 25.4743 -3.66571 -177.563 0.609731 1.87715 4.54188e-006 -4.6773e-006 -1.01865 -1.35856 -8.67303 0.402843 -4.71681e-006 -6.37289e-006 -0.165243 20.5272 70.3338 -21.6818 -8.14389 25.3931 3.27188 
55.3937 85.4833 10.9122 -0.683548 -0.600185 -1.45969 -0.417751 -1.54756 -0.236356 -0.839325 0.909164 -0.429528 -0.834664 2.55412 -0.415844 7.37987 10.4776 -2.35527 -3.69207 3.392 -0.369473 67.4961 -2.71557 -2.42788 105.769 19.401 -0.854235 -2.47745e-007 1.0738e-007 -2.66121e-006 16.7092 8.86683 -1.46068 2.21832e-006 -1.88737e-007 -3.00345 8.02904 -4.95139 0.697692 -54.3474 -0.0333702 -0.576941 -113.69 16.1564 4.41582 5.11801e-006 -3.26363e-006 3.38616e-006 -12.6899 8.17827 1.41511 1.80882e-006 -9.62004e-008 3.01055 -8.02888 -4.95144 -0.697687 179.155 0.412099 -0.212719 180 7.01572e-015 179.036 175.361 5.35077 179.855 -5.44318e-007 -6.69345e-007 0.100636 -19.0426 67.3653 19.013 8.14957 25.4733 -3.66562 -177.571 0.668104 1.88601 4.54188e-006 -4.6773e-006 -1.01872 -1.3537 -8.72844 0.403994 -4.71681e-006 -6.37289e-006 -0.166629 20.5462 70.353 -21.7022 -8.14398 25.3943 3.26964 
55.3908 85.4813 10.9105 -0.680265 -0.571848 -1.4707 -0.417233 -1.54973 -0.23628 -0.838395 0.90482 -0.430584 -0.83372 2.54978 -0.416898 7.36702 10.4963 -2.34938 -3.69568 3.35828 -0.366932 67.4928 -2.70465 -2.42185 105.784 19.4047 -0.872335 -2.47745e-007 1.0738e-007 -2.66121e-006 16.7138 8.87736 -1.46199 2.21832e-006 -1.88737e-007 -3.00345 8.02904 -4.95139 0.697692 -54.3275 -0.0606916 -0.561183 -113.725 16.1447 4.41776 5.11801e-006 -3.26363e-006 3.38616e-006 -12.6806 8.14886 1.41062 1.80882e-006 -9.62005e-008 3.01055 -8.02888 -4.95144 -0.697687 179.157 0.462506 -0.218184 180 7.01572e-015 179.036 175.365 5.38035 179.855 -5.44318e-007 -6.69345e-007 0.101294 -19.0601 67.3747 19.0205 8.1495 25.4723 -3.66558 -177.58 0.726085 1.89476 4.54188e-006 -4.6773e-006 -1.01879 -1.34889 -8.78344 0.405132 -4.71681e-006 -6.37289e-006 -0.168008 20.5653 70.372 -21.7225 -8.14406 25.3956 3.26742 
55.3963 85.4796 10.9119 -0.676984 -0.543543 -1.48173 -0.416711 -1.55191 -0.236202 -0.837458 0.90046 -0.431642 -0.83277 2.54542 -0.417954 7.35409 10.5152 -2.34347 -3.69921 3.32449 -0.364396 67.4895 -2.69368 -2.4158 105.799 19.4083 -0.890403 -2.47745e-007 1.0738e-007 -2.66121e-006 16.7183 8.88786 -1.4633 2.21832e-006 -1.88737e-007 -3.00345 8.02904 -4.95139 0.697692 -54.3076 -0.0879968 -0.54543 -113.759 16.133 4.41959 5.11801e-006 -3.26363e-006 3.38616e-006 -12.6713 8.11933 1.40612 1.80882e-006 -9.62005e-008 3.01055 -8.02888 -4.95144 -0.697687 179.159 0.512903 -0.223629 180 7.01572e-015 179.036 175.368 5.40997 179.855 -5.44318e-007 -6.69345e-007 0.101951 -19.0775 67.384 19.0279 8.14943 25.4713 -3.66554 -177.588 0.783969 1.90349 4.54188e-006 -4.6773e-006 -1.01886 -1.34409 -8.83835 0.406267 -4.71681e-006 -6.37289e-006 -0.169385 20.5843 70.3911 -21.7428 -8.14414 25.3968 3.26521 
55.3898 85.4755 10.9042 -0.673666 -0.515175 -1.49272 -0.416198 -1.55407 -0.236128 -0.836535 0.896132 -0.432695 -0.831833 2.54109 -0.419005 7.34133 10.5338 -2.33759 -3.70291 3.29085 -0.361853 67.4862 -2.68282 -2.4098 105.813 19.412 -0.908537 -2.47745e-007 1.0738e-007 -2.66121e-006 16.7229 8.8984 -1.46462 2.21832e-006 -1.88737e-007 -3.00345 8.02904 -4.95139 0.697692 -54.2876 -0.115335 -0.529667 -113.794 16.1213 4.42163 5.11801e-006 -3.26363e-006 3.38616e-006 -12.6621 8.09003 1.40165 1.80882e-006 -9.62005e-008 3.01055 -8.02888 -4.95144 -0.697687 179.161 0.563319 -0.229115 180 7.01572e-015 179.036 175.372 5.43951 179.854 -5.44318e-007 -6.69345e-007 0.102609 -19.0951 67.3933 19.0354 8.14936 25.4703 -3.66549 -177.596 0.842047 1.91228 4.54188e-006 -4.6773e-006 -1.01893 -1.33927 -8.89346 0.407409 -4.71681e-006 -6.37289e-006 -0.170765 20.6035 70.4101 -21.7632 -8.14422 25.398 3.26298 
55.3929 85.4721 10.8997 -0.670268 -0.486651 -1.50363 -0.415707 -1.5562 -0.236064 -0.835644 0.891887 -0.433735 -0.830929 2.53685 -0.420043 7.32903 10.5518 -2.33177 -3.70702 3.25756 -0.359291 67.4828 -2.67225 -2.40395 105.828 19.4158 -0.926833 -2.47745e-007 1.0738e-007 -2.66121e-006 16.7275 8.90905 -1.46595 2.21832e-006 -1.88737e-007 -3.00345 8.02904 -4.95139 0.697692 -54.2673 -0.142754 -0.513876 -113.829 16.1093 4.42421 5.11801e-006 -3.26363e-006 3.38616e-006 -12.6534 8.0613 1.39726 1.80882e-006 -9.62005e-008 3.01055 -8.02888 -4.95144 -0.697687 179.163 0.613783 -0.234704 180 7.01572e-015 179.036 175.376 5.46885 179.854 -5.44318e-007 -6.69345e-007 0.103266 -19.1127 67.4026 19.0429 8.14929 25.4692 -3.66539 -177.605 0.900612 1.92119 4.54188e-006 -4.6773e-006 -1.01899 -1.33437 -8.94906 0.40857 -4.71681e-006 -6.37289e-006 -0.172154 20.6227 70.4293 -21.7838 -8.14431 25.3993 3.26073 
55.3965 85.4717 10.8949 -0.666752 -0.457877 -1.51438 -0.415251 -1.55825 -0.236015 -0.834807 0.887773 -0.434755 -0.830079 2.53273 -0.42106 7.31746 10.5687 -2.32603 -3.7118 3.22483 -0.356701 67.4794 -2.66215 -2.39833 105.843 19.4197 -0.945389 -2.47745e-007 1.0738e-007 -2.66121e-006 16.7321 8.91986 -1.46731 2.21832e-006 -1.88737e-007 -3.00345 8.02904 -4.95139 0.697692 -54.2466 -0.170304 -0.498042 -113.864 16.0969 4.42764 5.11801e-006 -3.26363e-006 3.38616e-006 -12.6453 8.03347 1.39301 1.80882e-006 -9.62004e-008 3.01055 -8.02888 -4.95144 -0.697687 179.166 0.664324 -0.240457 180 7.01572e-015 179.036 175.38 5.49783 179.854 -5.44318e-007 -6.69345e-007 0.103924 -19.1304 67.4119 19.0503 8.14921 25.4681 -3.66522 -177.614 0.959959 1.9303 4.54188e-006 -4.6773e-006 -1.01904 -1.32938 -9.00546 0.40976 -4.71681e-006 -6.37289e-006 -0.173557 20.6422 70.4487 -21.8046 -8.1444 25.4006 3.25841 
55.3875 85.4669 10.8741 -0.663076 -0.428758 -1.52493 -0.414844 -1.56022 -0.235988 -0.834042 0.88384 -0.435747 -0.829302 2.5288 -0.422049 7.30691 10.5843 -2.32041 -3.71749 3.19289 -0.354071 67.4759 -2.65268 -2.39305 105.858 19.4238 -0.964302 -2.47745e-007 1.0738e-007 -2.66121e-006 16.7367 8.93089 -1.4687 2.21832e-006 -1.88737e-007 -3.00345 8.02904 -4.95139 0.697692 -54.2253 -0.198032 -0.482149 -113.899 16.084 4.43224 5.11801e-006 -3.26363e-006 3.38616e-006 -12.638 8.00689 1.38895 1.80882e-006 -9.62004e-008 3.01055 -8.02888 -4.95144 -0.697687 179.168 0.71497 -0.246436 180 7.01572e-015 179.036 175.385 5.52635 179.853 -5.44318e-007 -6.69345e-007 0.104581 -19.1483 67.421 19.0576 8.14913 25.4669 -3.66496 -177.623 1.02038 1.93969 4.54188e-006 -4.6773e-006 -1.01906 -1.32424 -9.06294 0.410988 -4.71681e-006 -6.37289e-006 -0.174978 20.6619 70.4683 -21.8256 -8.14449 25.402 3.25601 
55.3904 85.4653 10.8717 -0.6592 -0.399202 -1.53521 -0.414499 -1.56207 -0.235987 -0.833369 0.880137 -0.436703 -0.828618 2.5251 -0.423001 7.29764 10.5981 -2.31495 -3.72436 3.16194 -0.35139 67.4723 -2.64403 -2.38818 105.874 19.4282 -0.983668 -2.47745e-007 1.0738e-007 -2.66121e-006 16.7415 8.94222 -1.47013 2.21832e-006 -1.88737e-007 -3.00345 8.02904 -4.95139 0.697692 -54.2032 -0.225989 -0.46618 -113.936 16.0705 4.43833 5.11801e-006 -3.26363e-006 3.38616e-006 -12.6319 7.9819 1.38512 1.80882e-006 -9.62004e-008 3.01055 -8.02888 -4.95144 -0.697687 179.17 0.765751 -0.252703 180 7.01572e-015 179.036 175.39 5.55429 179.853 -5.44318e-007 -6.69345e-007 0.105237 -19.1665 67.4301 19.0649 8.14904 25.4655 -3.66457 -177.632 1.08216 1.94943 4.54188e-006 -4.6773e-006 -1.01907 -1.31892 -9.12181 0.412266 -4.71681e-006 -6.37289e-006 -0.176422 20.6819 70.4881 -21.8469 -8.14459 25.4035 3.25352 
